<svg xmlns="http://www.w3.org/2000/svg" viewBox="0 0 512 460" role="img" aria-label="Hamburguesa crispy de pollo con lechuga y tomate">
  <defs>
    <linearGradient id="bunTop" x1="0" y1="0" x2="0" y2="1">
      <stop offset="0" stop-color="#F8BC66"/>
      <stop offset=".55" stop-color="#E08A33"/>
      <stop offset="1" stop-color="#C56E27"/>
    </linearGradient>
    <linearGradient id="bunBot" x1="0" y1="0" x2="0" y2="1">
      <stop offset="0" stop-color="#EFB05B"/>
      <stop offset="1" stop-color="#BC6524"/>
    </linearGradient>
    <linearGradient id="crispy" x1="0" y1="0" x2="0" y2="1">
      <stop offset="0" stop-color="#EFA945"/>
      <stop offset="1" stop-color="#C67B22"/>
    </linearGradient>
    <linearGradient id="tomato" x1="0" y1="0" x2="0" y2="1">
      <stop offset="0" stop-color="#E85543"/>
      <stop offset="1" stop-color="#C23524"/>
    </linearGradient>
  </defs>

  <!-- sombra -->
  <ellipse cx="256" cy="408" rx="182" ry="19" fill="#3A2314" opacity=".16"/>

  <!-- pan inferior -->
  <path d="M96 320 H416 C424 320 428 326 428 334 L428 346 C428 364 414 374 396 374 L116 374 C98 374 84 364 84 346 L84 334 C84 326 88 320 96 320 Z" fill="url(#bunBot)"/>
  <rect x="98" y="318" width="316" height="7" rx="3.5" fill="#F7DFAE"/>

  <!-- pollo crispy (bordes irregulares crocantes) -->
  <path d="M96 296 C88 288 92 276 102 272 C94 264 100 250 112 250 C108 240 118 232 128 236 C130 226 144 224 150 232 C158 222 172 226 174 236 C182 228 196 232 196 242 C206 234 220 240 218 250 C228 244 240 252 236 262 C248 258 258 268 252 276 C264 274 272 286 264 294 C276 294 282 306 274 312 C286 314 288 328 278 332 L120 332 C104 332 92 320 96 308 Z" fill="url(#crispy)" transform="translate(2 -6)"/>
  <path d="M416 290 C426 284 424 272 414 270 C422 260 414 248 402 250 C406 240 396 230 386 236 C384 226 370 226 364 234 C356 224 342 228 340 238 C332 230 318 234 318 244 C308 236 296 244 300 254 C288 250 278 260 284 268 C272 266 264 278 272 286 C260 288 258 300 266 306 C254 310 254 324 266 328 L392 330 C408 330 420 318 416 306 Z" fill="url(#crispy)"/>
  <rect x="112" y="262" width="290" height="66" rx="30" fill="url(#crispy)"/>
  <g fill="#A8621B" opacity=".55">
    <circle cx="150" cy="286" r="4"/><circle cx="188" cy="302" r="3.4"/><circle cx="224" cy="280" r="4.2"/>
    <circle cx="262" cy="300" r="3.6"/><circle cx="298" cy="282" r="4"/><circle cx="336" cy="302" r="3.4"/>
    <circle cx="368" cy="284" r="4"/><circle cx="206" cy="318" r="3"/><circle cx="286" cy="318" r="3.2"/>
  </g>
  <path d="M132 272 Q150 262 170 268 M240 266 Q260 258 282 266 M330 268 Q350 260 372 268" stroke="#F5CE8E" stroke-width="4" fill="none" stroke-linecap="round" opacity=".8"/>

  <!-- mayo -->
  <path d="M108 252 L404 252 L404 260 C404 264 401 266 397 266 L380 266 L380 276 C380 283 368 283 368 276 L368 266 L322 266 L322 280 C322 287 310 287 310 280 L310 266 L262 266 L262 278 C262 285 250 285 250 278 L250 266 L204 266 L204 282 C204 289 192 289 192 282 L192 266 L148 266 L148 275 C148 282 136 282 136 275 L136 266 L115 266 C111 266 108 264 108 260 Z" fill="#FBF3E2"/>

  <!-- tomate -->
  <rect x="108" y="236" width="296" height="20" rx="9" fill="url(#tomato)"/>
  <rect x="118" y="240" width="276" height="4" rx="2" fill="#F08A76" opacity=".7"/>

  <!-- lechuga -->
  <path d="M86 208 H426 V216 C418 234 402 238 394 226 C386 240 368 242 360 228 C350 244 332 244 324 230 C314 244 296 244 288 230 C278 246 260 244 252 230 C242 244 224 244 216 228 C206 242 188 242 180 226 C172 238 156 240 148 226 C140 236 126 236 118 224 C108 234 92 230 86 218 Z" fill="#7CB84C"/>
  <path d="M110 216 Q140 224 168 216 M200 218 Q232 226 262 217 M296 218 Q330 226 362 216" stroke="#9ACD68" stroke-width="4" fill="none" stroke-linecap="round" opacity=".8"/>

  <!-- pan superior -->
  <path d="M84 196 C84 116 150 60 256 60 C362 60 428 116 428 196 L428 199 C428 209 420 214 410 214 L102 214 C92 214 84 209 84 199 Z" fill="url(#bunTop)"/>
  <ellipse cx="196" cy="106" rx="76" ry="26" fill="#FFDCA4" opacity=".5"/>
  <g fill="#FFF0D2" stroke="#E3B877" stroke-width=".8">
    <ellipse cx="170" cy="128" rx="6.5" ry="3.8" transform="rotate(-18 170 128)"/>
    <ellipse cx="222" cy="100" rx="6.5" ry="3.8" transform="rotate(10 222 100)"/>
    <ellipse cx="268" cy="132" rx="6.5" ry="3.8" transform="rotate(-8 268 132)"/>
    <ellipse cx="314" cy="106" rx="6.5" ry="3.8" transform="rotate(16 314 106)"/>
    <ellipse cx="352" cy="144" rx="6.5" ry="3.8" transform="rotate(-14 352 144)"/>
    <ellipse cx="134" cy="168" rx="6.5" ry="3.8" transform="rotate(12 134 168)"/>
    <ellipse cx="196" cy="178" rx="6.5" ry="3.8" transform="rotate(-6 196 178)"/>
    <ellipse cx="260" cy="184" rx="6.5" ry="3.8" transform="rotate(8 260 184)"/>
    <ellipse cx="326" cy="176" rx="6.5" ry="3.8" transform="rotate(-12 326 176)"/>
    <ellipse cx="380" cy="162" rx="6.5" ry="3.8" transform="rotate(10 380 162)"/>
  </g>
</svg>
