<svg xmlns="http://www.w3.org/2000/svg" viewBox="0 0 256 256" role="img" aria-label="Cappuccino con arte latte de corazón">
  <defs>
    <linearGradient id="tazac" x1="0" y1="0" x2="0" y2="1">
      <stop offset="0" stop-color="#E85D26"/>
      <stop offset="1" stop-color="#C74A1B"/>
    </linearGradient>
  </defs>
  <ellipse cx="128" cy="220" rx="94" ry="12" fill="#3A2314" opacity=".14"/>
  <!-- vapor -->
  <path d="M100 66 C94 50 106 44 102 30 M132 62 C126 46 138 40 134 26 M164 66 C158 50 170 44 166 30" stroke="#C9A98C" stroke-width="5" fill="none" stroke-linecap="round" opacity=".85"/>
  <!-- platillo -->
  <ellipse cx="126" cy="200" rx="80" ry="19" fill="#E9DCC8"/>
  <ellipse cx="126" cy="196" rx="80" ry="19" fill="#FFFDF7"/>
  <!-- taza -->
  <path d="M72 100 L180 100 C186 100 190 105 189 110 L182 174 C180.5 187 169 196 156 196 L96 196 C83 196 71.5 187 70 174 L63 110 C62 105 66 100 72 100 Z" fill="url(#tazac)"/>
  <path d="M186 112 C208 112 216 132 205 147 C198 157 186 160 178 158 L180 143 C186 144 193 141 195 135 C197 128 192 123 184 125 Z" fill="#C74A1B"/>
  <!-- espuma -->
  <ellipse cx="126" cy="102" rx="56" ry="12" fill="#E9DCC8"/>
  <ellipse cx="126" cy="100" rx="50" ry="10" fill="#F6EBD9"/>
  <!-- corazón de latte art -->
  <path d="M126 110 C117 103 113 98 113 93 C113 89 116 86 120 86 C122.5 86 125 87.5 126 90 C127 87.5 129.5 86 132 86 C136 86 139 89 139 93 C139 98 135 103 126 110 Z" fill="#B97F35"/>
  <!-- canela espolvoreada -->
  <g fill="#B97F35" opacity=".8">
    <circle cx="96" cy="96" r="1.8"/><circle cx="106" cy="92" r="1.6"/><circle cx="150" cy="94" r="1.8"/>
    <circle cx="158" cy="99" r="1.6"/><circle cx="142" cy="106" r="1.5"/><circle cx="104" cy="104" r="1.5"/>
  </g>
</svg>
