<svg xmlns="http://www.w3.org/2000/svg" viewBox="0 0 256 256" role="img" aria-label="Mokaccino en vaso de vidrio con capas">
  <defs>
    <linearGradient id="capa1" x1="0" y1="0" x2="0" y2="1">
      <stop offset="0" stop-color="#8A5A2B"/>
      <stop offset="1" stop-color="#5C3A21"/>
    </linearGradient>
  </defs>
  <ellipse cx="128" cy="234" rx="80" ry="11" fill="#3A2314" opacity=".14"/>
  <!-- vapor -->
  <path d="M112 48 C106 34 118 28 114 16 M146 46 C140 32 152 26 148 14" stroke="#C9A98C" stroke-width="5" fill="none" stroke-linecap="round" opacity=".8"/>
  <!-- vaso -->
  <path d="M88 70 L168 70 L160 218 C159.5 228 152 234 143 234 L113 234 C104 234 96.5 228 96 218 Z" fill="#EFE6D8" opacity=".55"/>
  <!-- capas -->
  <path d="M94 150 L162 150 L157 218 C156.5 226 150 231 143 231 L113 231 C106 231 99.5 226 99 218 Z" fill="url(#capa1)"/>
  <path d="M92 118 L164 118 L162 152 L94 152 Z" fill="#C9975C"/>
  <path d="M90 88 L166 88 L164 120 L92 120 Z" fill="#E9D5B8"/>
  <!-- espuma -->
  <path d="M86 76 C82 60 98 54 106 60 C104 46 126 42 132 54 C136 42 156 46 154 58 C166 56 172 68 164 76 C168 82 162 90 156 88 L94 88 C88 88 84 82 86 76 Z" fill="#FFFDF7"/>
  <path d="M100 70 C114 62 126 72 140 64" stroke="#6B4226" stroke-width="4" fill="none" stroke-linecap="round" opacity=".8"/>
  <!-- cuchara larga -->
  <rect x="158" y="24" width="8" height="120" rx="4" fill="#B9B3A6" transform="rotate(10 162 84)"/>
  <!-- granos -->
  <g fill="#5C3A21">
    <ellipse cx="52" cy="222" rx="13" ry="9" transform="rotate(-20 52 222)"/>
    <ellipse cx="208" cy="218" rx="13" ry="9" transform="rotate(16 208 218)"/>
  </g>
  <path d="M44 216 Q52 222 60 228 M200 212 Q208 218 216 224" stroke="#8A5A2B" stroke-width="3" fill="none" stroke-linecap="round"/>
</svg>
