<svg xmlns="http://www.w3.org/2000/svg" viewBox="0 0 256 256" role="img" aria-label="Perfil de cliente frecuente con descuentos">
  <defs>
    <linearGradient id="badge" x1="0" y1="0" x2="0" y2="1">
      <stop offset="0" stop-color="#E85D26"/>
      <stop offset="1" stop-color="#C74A1B"/>
    </linearGradient>
  </defs>
  <!-- tarjeta -->
  <rect x="26" y="58" width="204" height="140" rx="16" fill="#33221A"/>
  <rect x="26" y="58" width="204" height="34" rx="16" fill="#221610"/>
  <rect x="26" y="80" width="204" height="12" fill="#221610"/>
  <!-- avatar -->
  <circle cx="78" cy="140" r="26" fill="#F2C580"/>
  <circle cx="78" cy="131" r="10" fill="#8A5A2B"/>
  <path d="M60 152 C60 142 96 142 96 152 L96 156 C96 160 92 162 88 162 L68 162 C64 162 60 160 60 156 Z" fill="#8A5A2B"/>
  <!-- datos -->
  <path d="M118 128 H206 M118 148 H188" stroke="#7A6454" stroke-width="8" stroke-linecap="round"/>
  <!-- estrellas de fidelidad -->
  <g fill="#F2C14E">
    <path d="M120 168 l3.4 7 7.6 1 -5.5 5.4 1.3 7.6 -6.8 -3.6 -6.8 3.6 1.3 -7.6 -5.5 -5.4 7.6 -1 Z"/>
    <path d="M150 168 l3.4 7 7.6 1 -5.5 5.4 1.3 7.6 -6.8 -3.6 -6.8 3.6 1.3 -7.6 -5.5 -5.4 7.6 -1 Z"/>
    <path d="M180 168 l3.4 7 7.6 1 -5.5 5.4 1.3 7.6 -6.8 -3.6 -6.8 3.6 1.3 -7.6 -5.5 -5.4 7.6 -1 Z"/>
  </g>
  <!-- etiqueta de descuento -->
  <g transform="rotate(12 196 78)">
    <path d="M158 56 L216 56 C222 56 226 60 226 66 L226 90 C226 96 222 100 216 100 L158 100 L138 78 Z" fill="url(#badge)"/>
    <circle cx="152" cy="78" r="5" fill="#FFF3E4"/>
    <text x="184" y="86" font-family="Arial, sans-serif" font-size="24" font-weight="bold" fill="#FFF3E4" text-anchor="middle">-20%</text>
  </g>
  <!-- corona -->
  <path d="M52 34 L62 48 L76 36 L88 48 L100 34 L96 58 L56 58 Z" fill="#F2C14E"/>
</svg>
